<?xml version="1.0" standalone="no"?>
<!DOCTYPE svg PUBLIC "-//W3C//DTD SVG 20010904//EN"
 "http://www.w3.org/TR/2001/REC-SVG-20010904/DTD/svg10.dtd">
<svg version="1.0" xmlns="http://www.w3.org/2000/svg"
 width="320.000000pt" height="320.000000pt" viewBox="0 0 320.000000 320.000000"
 preserveAspectRatio="xMidYMid meet">
<metadata>
Created by potrace 1.11, written by Peter Selinger 2001-2013
</metadata>
<g transform="translate(0.000000,320.000000) scale(0.100000,-0.100000)"
fill="#000000" stroke="none">
<path d="M0 1600 l0 -1600 1600 0 1600 0 0 1600 0 1600 -1600 0 -1600 0 0
-1600z m1067 185 c84 -99 157 -181 163 -183 7 -3 10 58 10 177 0 211 -11 194
130 189 l85 -3 3 -382 2 -383 -107 0 -108 0 -155 179 c-85 99 -157 177 -160
174 -3 -2 -5 -82 -5 -176 l0 -172 -112 -3 -113 -3 0 379 c0 208 3 382 7 386 4
4 52 5 107 4 l101 -3 152 -180z m885 171 c8 -7 39 -106 68 -220 30 -113 56
-203 59 -200 3 3 31 101 61 217 l56 212 152 2 c84 1 159 0 167 -3 13 -5 15
-58 15 -385 l0 -379 -121 0 -121 0 4 250 4 249 -34 -122 c-46 -171 -92 -339
-98 -359 -5 -16 -19 -18 -102 -18 l-97 0 -64 238 c-36 130 -68 244 -73 252 -6
10 -7 5 -3 -15 3 -16 9 -130 12 -252 l6 -223 -117 0 -116 0 0 379 c0 353 1
380 18 384 9 2 83 4 164 6 114 1 149 -2 160 -13z"/>
</g>
</svg>
