<svg xmlns="http://www.w3.org/2000/svg" version="1.2" baseProfile="tiny" viewBox="0 0 100 100" fill="#2ECC40"><path d="M82.5 45H80V35C80 18.458 66.542 5 50 5S20 18.458 20 35v10h-2.5c-4.136 0-7.5 3.364-7.5 7.5v35c0 4.136 3.364 7.5 7.5 7.5h65c4.136 0 7.5-3.364 7.5-7.5v-35c0-4.136-3.364-7.5-7.5-7.5zM25 35c0-13.785 11.215-25 25-25s25 11.215 25 25v10h-5V35c0-11.028-8.972-20-20-20s-20 8.972-20 20v10h-5V35zm40 0v10H35V35c0-8.271 6.729-15 15-15s15 6.729 15 15zm20 52.5c0 1.378-1.122 2.5-2.5 2.5h-65a2.503 2.503 0 0 1-2.5-2.5v-35c0-1.378 1.122-2.5 2.5-2.5h65c1.378 0 2.5 1.122 2.5 2.5v35z"/><path d="M50 62.5c-2.757 0-5 2.243-5 5 0 1.842 1.013 3.437 2.5 4.304V77.5a2.5 2.5 0 1 0 5 0v-5.696c1.487-.867 2.5-2.462 2.5-4.304 0-2.757-2.243-5-5-5z"/></svg>